<?xml version="1.0" encoding="utf-8"?>
<!-- Generator: Adobe Illustrator 21.0.0, SVG Export Plug-In . SVG Version: 6.00 Build 0)  -->
<svg version="1.1" id="Layer_1" xmlns="http://www.w3.org/2000/svg" xmlns:xlink="http://www.w3.org/1999/xlink" x="0px" y="0px"
	 viewBox="0 0 16 16" style="enable-background:new 0 0 16 16;" xml:space="preserve">
<style type="text/css">
	.st0{fill:#0B3DEA;}
	.st1{filter:url(#Adobe_OpacityMaskFilter);}
	.st2{fill:#FFFFFF;}
	.st3{mask:url(#mask-2);}
</style>
<title>C3655F33-FFBF-40A1-94F6-6CC3B8073E65</title>
<desc>Created with sketchtool.</desc>
<g id="Symbols">
	<g id="_x30_0_x5F__x5F_icons_x2F_02_x5F__x5F_16_x2F_download--16">
		<g id="Mask" transform="translate(1.000000, 1.000000)">
			<g id="Shape">
				<path id="path-1_1_" class="st0" d="M2,12h10v-1c0-0.6,0.4-1,1-1s1,0.4,1,1v2c0,0.6-0.4,1-1,1H1c-0.6,0-1-0.4-1-1v-2
					c0-0.6,0.4-1,1-1s1,0.4,1,1V12z M8,7.6l1.3-1.3c0.4-0.4,1-0.4,1.4,0c0.4,0.4,0.4,1,0,1.4l-3,3c-0.4,0.4-1,0.4-1.4,0l-3-3
					c-0.4-0.4-0.4-1,0-1.4c0.4-0.4,1-0.4,1.4,0L6,7.6V1c0-0.6,0.4-1,1-1s1,0.4,1,1V7.6z"/>
			</g>
			<defs>
				<filter id="Adobe_OpacityMaskFilter" filterUnits="userSpaceOnUse" x="-1" y="-1" width="16" height="16">
					<feColorMatrix  type="matrix" values="1 0 0 0 0  0 1 0 0 0  0 0 1 0 0  0 0 0 1 0"/>
				</filter>
			</defs>
			<mask maskUnits="userSpaceOnUse" x="-1" y="-1" width="16" height="16" id="mask-2">
				<g class="st1">
					<path id="path-1" class="st2" d="M2,12h10v-1c0-0.6,0.4-1,1-1s1,0.4,1,1v2c0,0.6-0.4,1-1,1H1c-0.6,0-1-0.4-1-1v-2
						c0-0.6,0.4-1,1-1s1,0.4,1,1V12z M8,7.6l1.3-1.3c0.4-0.4,1-0.4,1.4,0c0.4,0.4,0.4,1,0,1.4l-3,3c-0.4,0.4-1,0.4-1.4,0l-3-3
						c-0.4-0.4-0.4-1,0-1.4c0.4-0.4,1-0.4,1.4,0L6,7.6V1c0-0.6,0.4-1,1-1s1,0.4,1,1V7.6z"/>
				</g>
			</mask>
			<g id="_x30_0_x5F__x5F_icons_x2F_01_x5F__x5F_mask_x2F_01_x5F__x5F_primary" class="st3">
				<g id="Rectangle" transform="translate(-1.000000, -1.000000)">
					<rect class="st0" width="16" height="16"/>
				</g>
			</g>
		</g>
	</g>
</g>
</svg>
